<mxfile host="app.diagrams.net" modified="2024-06-11T00:13:41.203Z" agent="Mozilla/5.0 (iPad; CPU OS 17_5 like Mac OS X) AppleWebKit/605.1.15 (KHTML, like Gecko) CriOS/120.0.6099.119 Mobile/15E148 Safari/604.1" version="24.5.2" etag="wzT2Bz0T-BPfipHHR1c1" type="github">
  <diagram name="Page-1" id="ekatY8MDhhZO4fyWceSI">
    <mxGraphModel>
      <root>
        <mxCell id="0" />
        <mxCell id="1" parent="0" />
      </root>
    </mxGraphModel>
  </diagram>
</mxfile>
